<svg xmlns="http://www.w3.org/2000/svg" width="37" height="38" viewBox="0 0 37 38">
    <defs>
        <style>
            .cls-2{fill:#fff}
        </style>
    </defs>
    <g id="Instagram" transform="translate(-.292 .427)">
        <ellipse id="Elipse_16" cx="18.5" cy="19" fill="#2b2e46" rx="18.5" ry="19" transform="translate(.292 -.427)"/>
        <g id="instagram-2" transform="translate(8.539 8.539)">
            <path id="Trazado_1357" d="M20.8 6a7.457 7.457 0 0 0-.474-2.476A5.228 5.228 0 0 0 17.341.538a7.476 7.476 0 0 0-2.476-.474C13.773.012 13.426 0 10.655 0S7.538.012 6.449.06a7.459 7.459 0 0 0-2.475.474 4.979 4.979 0 0 0-1.81 1.18A5.024 5.024 0 0 0 .987 3.52 7.477 7.477 0 0 0 .513 6C.461 7.088.449 7.435.449 10.206s.012 3.118.06 4.206a7.457 7.457 0 0 0 .475 2.476 5.227 5.227 0 0 0 2.986 2.986 7.477 7.477 0 0 0 2.476.474c1.088.048 1.435.06 4.206.06s3.118-.012 4.206-.06a7.455 7.455 0 0 0 2.476-.474 5.22 5.22 0 0 0 2.986-2.986 7.482 7.482 0 0 0 .474-2.476c.048-1.088.06-1.435.06-4.206S20.849 7.088 20.8 6zm-1.838 8.332a5.594 5.594 0 0 1-.351 1.894 3.385 3.385 0 0 1-1.938 1.938 5.613 5.613 0 0 1-1.894.351c-1.076.048-1.4.06-4.122.06s-3.05-.012-4.122-.06a5.591 5.591 0 0 1-1.894-.351 3.14 3.14 0 0 1-1.17-.764 3.173 3.173 0 0 1-.761-1.17 5.614 5.614 0 0 1-.351-1.894c-.048-1.076-.06-1.4-.06-4.122s.012-3.05.06-4.122A5.591 5.591 0 0 1 2.71 4.2a3.1 3.1 0 0 1 .766-1.172 3.168 3.168 0 0 1 1.172-.761 5.617 5.617 0 0 1 1.894-.351c1.076-.048 1.4-.06 4.122-.06s3.05.012 4.122.06a5.594 5.594 0 0 1 1.894.351 3.138 3.138 0 0 1 1.172.761 3.172 3.172 0 0 1 .76 1.172 5.616 5.616 0 0 1 .351 1.894c.048 1.076.06 1.4.06 4.122s-.012 3.04-.06 4.116zm0 0" class="cls-2" transform="translate(-.449)"/>
            <path id="Trazado_1358" d="M130.192 124.5a5.242 5.242 0 1 0 5.242 5.242 5.244 5.244 0 0 0-5.242-5.242zm0 8.643a3.4 3.4 0 1 1 3.4-3.4 3.4 3.4 0 0 1-3.4 3.4zm0 0" class="cls-2" transform="translate(-119.986 -119.537)"/>
            <path id="Trazado_1359" d="M364.9 89.825a1.224 1.224 0 1 1-1.224-1.224 1.224 1.224 0 0 1 1.224 1.224zm0 0" class="cls-2" transform="translate(-348.018 -85.069)"/>
        </g>
    </g>
</svg>
