<svg xmlns="http://www.w3.org/2000/svg" width="56" height="56" viewBox="0 0 56 56">
    <defs>
        <filter id="3h4yd9xz1a" width="56" height="56" x="0" y="0" filterUnits="userSpaceOnUse">
            <feOffset dy="3"/>
            <feGaussianBlur result="blur" stdDeviation="3"/>
            <feFlood flood-opacity=".059"/>
            <feComposite in2="blur" operator="in"/>
            <feComposite in="SourceGraphic"/>
        </filter>
    </defs>
    <g>
        <g filter="url(#3h4yd9xz1a)" transform="translate(-1611 -5160) translate(1611 5160)">
            <circle cx="19" cy="19" r="19" fill="#fff" transform="translate(9 6)"/>
        </g>
        <path fill="#171727" d="M8.041 13.256L7.7 18.024a1.185 1.185 0 0 0 .947-.459l2.274-2.173 4.712 3.451c.864.482 1.473.228 1.706-.8l3.096-14.488c.274-1.277-.462-1.777-1.3-1.464L.951 9.051C-.29 9.532-.271 10.224.74 10.538l4.648 1.446 10.8-6.755c.508-.336.97-.15.59.186z" transform="translate(-1611 -5160) translate(1627.258 5175.529)"/>
    </g>
</svg>
