<svg xmlns="http://www.w3.org/2000/svg" width="38" height="38" viewBox="0 0 38 38">
    <g transform="translate(.068 .427)">
        <circle cx="19" cy="19" r="19" fill="#2b2e46" transform="translate(-.068 -.427)"/>
        <g>
            <g>
                <path fill="#fff" d="M20.288 49.951a8.672 8.672 0 0 1-2.4.657 4.136 4.136 0 0 0 1.83-2.3 8.312 8.312 0 0 1-2.638 1.007 4.159 4.159 0 0 0-7.191 2.845 4.283 4.283 0 0 0 .1.948 11.773 11.773 0 0 1-8.573-4.351 4.16 4.16 0 0 0 1.278 5.559 4.108 4.108 0 0 1-1.879-.512v.046a4.178 4.178 0 0 0 3.332 4.087 4.151 4.151 0 0 1-1.091.137 3.677 3.677 0 0 1-.79-.074 4.2 4.2 0 0 0 3.887 2.9A8.357 8.357 0 0 1 1 62.675a7.791 7.791 0 0 1-1-.057 11.71 11.71 0 0 0 6.381 1.867 11.757 11.757 0 0 0 11.838-11.836c0-.184-.006-.361-.015-.538a8.3 8.3 0 0 0 2.084-2.16z" transform="translate(9.393 11.955) translate(0 -48)"/>
            </g>
        </g>
    </g>
</svg>
