<svg xmlns="http://www.w3.org/2000/svg" width="135.038" height="35.323" viewBox="0 0 135.038 35.323">
    <defs>
        <style>
            .cls-1{isolation:isolate}.cls-2{fill:#292a46}
        </style>
    </defs>
    <g id="Logo_Woonkly" transform="translate(-994.34 -812.208)">
        <g id="W_nkly" class="cls-1" transform="translate(994.34 812.208)">
            <g id="Grupo_3123" class="cls-1">
                <path id="Trazado_1924" d="M1007.743 847.227h-6.58l-6.823-26.574h6.719l3.76 16.742 4.352-16.742h4.909l4.352 16.742 3.795-16.742h6.684l-6.788 26.574h-6.58l-3.9-15z" class="cls-2" transform="translate(-994.34 -819.514)"/>
                <path id="Trazado_1925" d="M1519.938 873.012a5.713 5.713 0 0 1 4.648 2.145 9.247 9.247 0 0 1 1.758 6.017v11.351h-5.779v-10.554a3.222 3.222 0 0 0-.7-2.221 2.44 2.44 0 0 0-1.915-.778 2.6 2.6 0 0 0-2.106.892 3.884 3.884 0 0 0-.748 2.563v10.1h-5.779v-18.983h5.779v1.9a5.353 5.353 0 0 1 4.842-2.432z" class="cls-2" transform="translate(-1439.869 -864.812)"/>
                <path id="Trazado_1926" d="M1669.887 837.737l6.092 9.491h-6.479l-4.943-8.086v8.086h-5.779v-26.575h5.779v15.527l4.491-7.934h6.684z" class="cls-2" transform="translate(-1569.174 -819.514)"/>
                <path id="Trazado_1927" d="M1804.469 839.921h-5.779v-27.713h5.779z" class="cls-2" transform="translate(-1690.214 -812.208)"/>
                <path id="Trazado_1928" d="M1863.921 887.962l2.716-11.009h6.406l-5.953 18.678a12.119 12.119 0 0 1-3.934 6.188 9.9 9.9 0 0 1-6.58 1.708v-5.922a6.177 6.177 0 0 0 2.785-.494 3.61 3.61 0 0 0 1.532-1.784l-6.963-18.374h6.475z" class="cls-2" transform="translate(-1738.005 -868.221)"/>
            </g>
        </g>
        <path id="Trazado_1929" fill="#218cff" d="M1262.982 868.45a9.2 9.2 0 0 0-10.544-7.584l-.218.038c-3.131.557-6.1 2.969-8.59 6.985-4.818-3.661-8.319-4-10.423-3.63a9.184 9.184 0 0 0 1.592 18.229 9.23 9.23 0 0 0 1.6-.141c3.136-.554 6.1-2.967 8.6-6.987 4.812 3.656 8.311 4 10.409 3.632l.108-.018a9.219 9.219 0 0 0 7.466-10.524zm-5.579 4a4.339 4.339 0 0 1-2.819 1.8c-1.712.3-4.408-.883-7.249-3.179 2.338-4.056 4.4-5.193 5.73-5.428a4.368 4.368 0 0 1 4.337 6.808zm-26.978 1.687a4.37 4.37 0 0 1 3.472-5.111l.274-.047a3.319 3.319 0 0 1 .427-.027c1.708 0 4.153 1.174 6.693 3.225-2.337 4.056-4.4 5.193-5.73 5.428h-.025a4.377 4.377 0 0 1-5.111-3.465z" transform="translate(-200.086 -41.992)"/>
    </g>
</svg>
