<svg xmlns="http://www.w3.org/2000/svg" width="23.051" height="22.955" viewBox="0 0 23.051 22.955">
    <g>
        <g>
            <path fill="#d0d0d0" d="M22.49 13.733a.811.811 0 0 0-.678.147 8.648 8.648 0 0 1-2.623 1.533 8.215 8.215 0 0 1-2.977.531 8.655 8.655 0 0 1-8.666-8.666 9.084 9.084 0 0 1 .472-2.859 7.915 7.915 0 0 1 1.414-2.535.752.752 0 0 0-.118-1.062.811.811 0 0 0-.678-.147 11.894 11.894 0 0 0-6.248 4.186 11.671 11.671 0 1 0 20.632 9.785.715.715 0 0 0-.53-.913z" transform="translate(0 -.652) translate(0 .652) translate(0 -.652)"/>
        </g>
    </g>
</svg>
