<svg xmlns="http://www.w3.org/2000/svg" width="23.615" height="23.619" viewBox="0 0 23.615 23.619">
    <defs>
        <style>
            .cls-1{fill:#51557e}
        </style>
    </defs>
    <g id="world_dark" transform="translate(-.004)">
        <g id="Grupo_2505" transform="translate(.004)">
            <path id="Trazado_1361" d="M25.125 6.025l-.353.112-1.883.163-.532.849-.386-.123-1.5-1.35-.217-.7-.291-.749-.941-.844-1.11-.217-.026.508 1.088 1.062.532.627-.6.313-.487-.144-.73-.3.025-.589-.958-.394-.318 1.384-.965.219.1.772 1.258.242.217-1.234 1.038.153.483.283h.774l.53 1.062 1.405 1.425-.1.554-1.133-.144-1.958.989-1.41 1.691-.183.749h-.506l-.943-.435-.916.435.228.966.4-.459.7-.022-.049.868.58.17.58.651.947-.266 1.081.171 1.256.338.627.074 1.063 1.207 2.052 1.207-1.327 2.535-1.4.651-.532 1.449-2.035 1.348-.216.78a11.794 11.794 0 0 0 7.041-18.037z" class="cls-1" transform="translate(-3.509 -.786)"/>
            <path id="Trazado_1362" d="M13.169 19.85l-.86-1.595.789-1.645-.789-.236-.886-.89-1.964-.441-.652-1.363v.81H8.52L6.827 12.2v-1.889l-1.24-2.017-1.97.351H2.29l-.668-.438.852-.675-.85.2a11.793 11.793 0 0 0 10.186 17.76 12.363 12.363 0 0 0 1.482-.1l-.123-1.431s.542-2.125.542-2.2-.542-1.911-.542-1.911z" class="cls-1" transform="translate(-.004 -1.869)"/>
            <path id="Trazado_1363" d="M5.283 3.808l2.1-.292.967-.53 1.085.314 1.738-.1.6-.936.868.143 2.109-.2.581-.641.819-.547 1.159.174.423-.064A11.771 11.771 0 0 0 3.6 4.294zM13.2 1.174L14.407.51l.774.447-1.121.853-1.071.108-.482-.313zm-3.572.1l.532.222.7-.222.38.658-1.609.423-.775-.455s.756-.488.773-.629z" class="cls-1" transform="translate(-.895)"/>
        </g>
    </g>
</svg>
