<svg xmlns="http://www.w3.org/2000/svg" width="14.832" height="18.511" viewBox="0 0 14.832 18.511">
  <g id="pin_2_" data-name="pin (2)" transform="translate(-50.885)">
    <g id="Grupo_3279" data-name="Grupo 3279" transform="translate(54.864 3.979)">
      <g id="Grupo_3278" data-name="Grupo 3278">
        <path id="Trazado_2024" data-name="Trazado 2024" d="M164.384,110.062a3.437,3.437,0,1,0,3.437,3.437A3.441,3.441,0,0,0,164.384,110.062Zm0,5.426a1.99,1.99,0,1,1,1.99-1.99A1.992,1.992,0,0,1,164.384,115.488Z" transform="translate(-160.947 -110.062)" fill="#218cff"/>
      </g>
    </g>
    <g id="Grupo_3281" data-name="Grupo 3281" transform="translate(50.885)">
      <g id="Grupo_3280" data-name="Grupo 3280">
        <path id="Trazado_2025" data-name="Trazado 2025" d="M58.3,0a7.424,7.424,0,0,0-7.416,7.416v.2c0,2.068,1.186,4.478,3.524,7.163a30.484,30.484,0,0,0,3.437,3.36l.455.367.455-.367a30.477,30.477,0,0,0,3.437-3.36c2.338-2.685,3.524-5.095,3.524-7.163v-.2A7.424,7.424,0,0,0,58.3,0ZM64.27,7.621c0,3.495-4.5,7.725-5.969,9.01-1.466-1.285-5.969-5.515-5.969-9.01v-.2a5.969,5.969,0,0,1,11.938,0Z" transform="translate(-50.885)" fill="#218cff"/>
      </g>
    </g>
  </g>
</svg>
